<svg width="32" height="32" viewBox="0 0 32 32" fill="none" xmlns="http://www.w3.org/2000/svg">
<rect width="32" height="32" rx="16" fill="url(#paint0_linear_1182_272)"/>
<path d="M15.256 23V8.048H19.816C20.712 8.048 21.488 8.144 22.144 8.336C22.8 8.512 23.344 8.768 23.776 9.104C24.224 9.424 24.552 9.816 24.76 10.28C24.984 10.744 25.096 11.256 25.096 11.816C25.096 12.232 25.016 12.656 24.856 13.088C24.696 13.52 24.456 13.912 24.136 14.264C23.816 14.6 23.432 14.864 22.984 15.056C23.384 15.232 23.752 15.448 24.088 15.704C24.424 15.96 24.712 16.248 24.952 16.568C25.192 16.872 25.368 17.208 25.48 17.576C25.608 17.928 25.672 18.296 25.672 18.68C25.672 19.32 25.552 19.912 25.312 20.456C25.072 20.984 24.704 21.44 24.208 21.824C23.728 22.192 23.12 22.48 22.384 22.688C21.648 22.896 20.784 23 19.792 23H15.256ZM17.968 20.768H20.08C20.656 20.768 21.152 20.688 21.568 20.528C21.984 20.352 22.304 20.104 22.528 19.784C22.752 19.464 22.864 19.072 22.864 18.608C22.864 18.128 22.76 17.712 22.552 17.36C22.344 16.992 22.008 16.704 21.544 16.496C21.08 16.288 20.456 16.184 19.672 16.184H17.968V20.768ZM17.968 14.024H19.6C20.304 14.024 20.856 13.944 21.256 13.784C21.656 13.608 21.936 13.376 22.096 13.088C22.272 12.784 22.36 12.44 22.36 12.056C22.36 11.784 22.312 11.536 22.216 11.312C22.12 11.088 21.968 10.904 21.76 10.76C21.568 10.6 21.312 10.472 20.992 10.376C20.672 10.28 20.288 10.232 19.84 10.232H17.968V14.024Z" fill="#08122C"/>
<path d="M8.912 23.36C8.144 23.36 7.416 23.224 6.728 22.952C6.04 22.68 5.464 22.264 5 21.704L6.344 19.568L6.464 19.376L6.656 19.496C6.688 19.624 6.728 19.752 6.776 19.88C6.824 20.008 6.944 20.168 7.136 20.36C7.36 20.52 7.6 20.648 7.856 20.744C8.112 20.824 8.384 20.864 8.672 20.864C9.088 20.864 9.432 20.752 9.704 20.528C9.992 20.288 10.208 19.936 10.352 19.472C10.496 18.992 10.568 18.4 10.568 17.696V10.232H7.808V8.048H15.464V10.232H13.256V17.888C13.272 18.832 13.16 19.648 12.92 20.336C12.68 21.008 12.352 21.568 11.936 22.016C11.52 22.464 11.048 22.8 10.52 23.024C9.992 23.248 9.456 23.36 8.912 23.36Z" fill="#08122C"/>
<defs>
<linearGradient id="paint0_linear_1182_272" x1="16" y1="0" x2="16" y2="32" gradientUnits="userSpaceOnUse">
<stop stop-color="#B7BEFF"/>
<stop offset="1" stop-color="#F0DCFF"/>
</linearGradient>
</defs>
</svg>
